<svg xmlns="http://www.w3.org/2000/svg" xmlns:xlink="http://www.w3.org/1999/xlink" contentStyleType="text/css" data-diagram-type="DESCRIPTION" height="978px" preserveAspectRatio="none" style="width:878px;height:978px;background:#FFFFFF;" version="1.1" viewBox="0 0 878 978" width="878px" zoomAndPan="magnify"><title>AutoMechApp &#8212; Structural layers</title><defs/><g><g class="title" data-source-line="1"><text fill="#000000" font-family="sans-serif" font-size="14" font-weight="bold" lengthAdjust="spacing" textLength="266.1641" x="298.918" y="22.9951">AutoMechApp &#8212; Structural layers</text></g><!--cluster UI Root--><g class="cluster" data-qualified-name="UI Root" data-source-line="8" id="ent0002"><rect fill="none" height="97.3" rx="2.5" ry="2.5" style="stroke:#181818;stroke-width:1;" width="158" x="386" y="44.2969"/><text fill="#000000" font-family="sans-serif" font-size="14" font-weight="bold" lengthAdjust="spacing" textLength="58.1602" x="435.9199" y="59.292">UI Root</text></g><!--cluster UI Fragments--><g class="cluster" data-qualified-name="UI Fragments" data-source-line="12" id="ent0004"><rect fill="none" height="97.29" rx="2.5" ry="2.5" style="stroke:#181818;stroke-width:1;" width="774" x="98" y="165.5969"/><text fill="#000000" font-family="sans-serif" font-size="14" font-weight="bold" lengthAdjust="spacing" textLength="106.4629" x="431.7686" y="180.592">UI Fragments</text></g><!--cluster Domain Objects--><g class="cluster" data-qualified-name="Domain Objects" data-source-line="19" id="ent0009"><rect fill="none" height="309.9" rx="2.5" ry="2.5" style="stroke:#181818;stroke-width:1;" width="229" x="147" y="286.8869"/><text fill="#000000" font-family="sans-serif" font-size="14" font-weight="bold" lengthAdjust="spacing" textLength="124.4551" x="199.2725" y="301.882">Domain Objects</text></g><!--cluster DB Operations--><g class="cluster" data-qualified-name="DB Operations" data-source-line="26" id="ent0014"><rect fill="none" height="113.59" rx="2.5" ry="2.5" style="stroke:#181818;stroke-width:1;" width="294" x="7" y="620.7869"/><text fill="#000000" font-family="sans-serif" font-size="14" font-weight="bold" lengthAdjust="spacing" textLength="114.3447" x="96.8276" y="635.782">DB Operations</text></g><!--cluster Database Access--><g class="cluster" data-qualified-name="Database Access" data-source-line="30" id="ent0016"><rect fill="none" height="97.3" rx="2.5" ry="2.5" style="stroke:#181818;stroke-width:1;" width="202" x="53" y="758.3769"/><text fill="#000000" font-family="sans-serif" font-size="14" font-weight="bold" lengthAdjust="spacing" textLength="132.9727" x="87.5137" y="773.372">Database Access</text></g><!--entity MainActivity--><g class="entity" data-qualified-name="UI Root.MainActivity" data-source-line="9" id="ent0003"><rect fill="#F1F1F1" height="46.2969" rx="2.5" ry="2.5" style="stroke:#181818;stroke-width:0.5;" width="126.0234" x="401.99" y="79.2969"/><rect fill="#F1F1F1" height="10" style="stroke:#181818;stroke-width:0.5;" width="15" x="508.0134" y="84.2969"/><rect fill="#F1F1F1" height="2" style="stroke:#181818;stroke-width:0.5;" width="4" x="506.0134" y="86.2969"/><rect fill="#F1F1F1" height="2" style="stroke:#181818;stroke-width:0.5;" width="4" x="506.0134" y="90.2969"/><text fill="#000000" font-family="sans-serif" font-size="14" lengthAdjust="spacing" textLength="86.0234" x="416.99" y="112.292">MainActivity</text></g><!--entity OwnersFragment--><g class="entity" data-qualified-name="UI Fragments.OwnersFragment" data-source-line="13" id="ent0005"><rect fill="#F1F1F1" height="46.2969" rx="2.5" ry="2.5" style="stroke:#181818;stroke-width:0.5;" width="160.8936" x="292.55" y="200.5969"/><rect fill="#F1F1F1" height="10" style="stroke:#181818;stroke-width:0.5;" width="15" x="433.4436" y="205.5969"/><rect fill="#F1F1F1" height="2" style="stroke:#181818;stroke-width:0.5;" width="4" x="431.4436" y="207.5969"/><rect fill="#F1F1F1" height="2" style="stroke:#181818;stroke-width:0.5;" width="4" x="431.4436" y="211.5969"/><text fill="#000000" font-family="sans-serif" font-size="14" lengthAdjust="spacing" textLength="120.8936" x="307.55" y="233.592">OwnersFragment</text></g><!--entity CarsFragment--><g class="entity" data-qualified-name="UI Fragments.CarsFragment" data-source-line="14" id="ent0006"><rect fill="#F1F1F1" height="46.2969" rx="2.5" ry="2.5" style="stroke:#181818;stroke-width:0.5;" width="139.292" x="488.35" y="200.5969"/><rect fill="#F1F1F1" height="10" style="stroke:#181818;stroke-width:0.5;" width="15" x="607.642" y="205.5969"/><rect fill="#F1F1F1" height="2" style="stroke:#181818;stroke-width:0.5;" width="4" x="605.642" y="207.5969"/><rect fill="#F1F1F1" height="2" style="stroke:#181818;stroke-width:0.5;" width="4" x="605.642" y="211.5969"/><text fill="#000000" font-family="sans-serif" font-size="14" lengthAdjust="spacing" textLength="99.292" x="503.35" y="233.592">CarsFragment</text></g><!--entity BreakdownsFragment--><g class="entity" data-qualified-name="UI Fragments.BreakdownsFragment" data-source-line="15" id="ent0007"><rect fill="#F1F1F1" height="46.2969" rx="2.5" ry="2.5" style="stroke:#181818;stroke-width:0.5;" width="193.6172" x="662.19" y="200.5969"/><rect fill="#F1F1F1" height="10" style="stroke:#181818;stroke-width:0.5;" width="15" x="835.8072" y="205.5969"/><rect fill="#F1F1F1" height="2" style="stroke:#181818;stroke-width:0.5;" width="4" x="833.8072" y="207.5969"/><rect fill="#F1F1F1" height="2" style="stroke:#181818;stroke-width:0.5;" width="4" x="833.8072" y="211.5969"/><text fill="#000000" font-family="sans-serif" font-size="14" lengthAdjust="spacing" textLength="153.6172" x="677.19" y="233.592">BreakdownsFragment</text></g><!--entity StatsFragment--><g class="entity" data-qualified-name="UI Fragments.StatsFragment" data-source-line="16" id="ent0008"><rect fill="#F1F1F1" height="46.2969" rx="2.5" ry="2.5" style="stroke:#181818;stroke-width:0.5;" width="143.626" x="114.19" y="200.5969"/><rect fill="#F1F1F1" height="10" style="stroke:#181818;stroke-width:0.5;" width="15" x="237.816" y="205.5969"/><rect fill="#F1F1F1" height="2" style="stroke:#181818;stroke-width:0.5;" width="4" x="235.816" y="207.5969"/><rect fill="#F1F1F1" height="2" style="stroke:#181818;stroke-width:0.5;" width="4" x="235.816" y="211.5969"/><text fill="#000000" font-family="sans-serif" font-size="14" lengthAdjust="spacing" textLength="103.626" x="129.19" y="233.592">StatsFragment</text></g><!--entity Owner--><g class="entity" data-qualified-name="Domain Objects.Owner" data-source-line="20" id="ent0010"><rect fill="#F1F1F1" height="46.2969" rx="2.5" ry="2.5" style="stroke:#181818;stroke-width:0.5;" width="85.7119" x="274.14" y="321.8869"/><rect fill="#F1F1F1" height="10" style="stroke:#181818;stroke-width:0.5;" width="15" x="339.8519" y="326.8869"/><rect fill="#F1F1F1" height="2" style="stroke:#181818;stroke-width:0.5;" width="4" x="337.8519" y="328.8869"/><rect fill="#F1F1F1" height="2" style="stroke:#181818;stroke-width:0.5;" width="4" x="337.8519" y="332.8869"/><text fill="#000000" font-family="sans-serif" font-size="14" lengthAdjust="spacing" textLength="45.7119" x="289.14" y="354.882">Owner</text></g><!--entity Car--><g class="entity" data-qualified-name="Domain Objects.Car" data-source-line="21" id="ent0011"><rect fill="#F1F1F1" height="46.2969" rx="2.5" ry="2.5" style="stroke:#181818;stroke-width:0.5;" width="64.1104" x="276.94" y="428.1869"/><rect fill="#F1F1F1" height="10" style="stroke:#181818;stroke-width:0.5;" width="15" x="321.0504" y="433.1869"/><rect fill="#F1F1F1" height="2" style="stroke:#181818;stroke-width:0.5;" width="4" x="319.0504" y="435.1869"/><rect fill="#F1F1F1" height="2" style="stroke:#181818;stroke-width:0.5;" width="4" x="319.0504" y="439.1869"/><text fill="#000000" font-family="sans-serif" font-size="14" lengthAdjust="spacing" textLength="24.1104" x="291.94" y="461.182">Car</text></g><!--entity Breakdown--><g class="entity" data-qualified-name="Domain Objects.Breakdown" data-source-line="22" id="ent0012"><rect fill="#F1F1F1" height="46.2969" rx="2.5" ry="2.5" style="stroke:#181818;stroke-width:0.5;" width="118.4355" x="241.78" y="534.4869"/><rect fill="#F1F1F1" height="10" style="stroke:#181818;stroke-width:0.5;" width="15" x="340.2155" y="539.4869"/><rect fill="#F1F1F1" height="2" style="stroke:#181818;stroke-width:0.5;" width="4" x="338.2155" y="541.4869"/><rect fill="#F1F1F1" height="2" style="stroke:#181818;stroke-width:0.5;" width="4" x="338.2155" y="545.4869"/><text fill="#000000" font-family="sans-serif" font-size="14" lengthAdjust="spacing" textLength="78.4355" x="256.78" y="567.482">Breakdown</text></g><!--entity Stats--><g class="entity" data-qualified-name="Domain Objects.Stats" data-source-line="23" id="ent0013"><rect fill="#F1F1F1" height="46.2969" rx="2.5" ry="2.5" style="stroke:#181818;stroke-width:0.5;" width="75.7383" x="163.13" y="321.8869"/><rect fill="#F1F1F1" height="10" style="stroke:#181818;stroke-width:0.5;" width="15" x="218.8683" y="326.8869"/><rect fill="#F1F1F1" height="2" style="stroke:#181818;stroke-width:0.5;" width="4" x="216.8683" y="328.8869"/><rect fill="#F1F1F1" height="2" style="stroke:#181818;stroke-width:0.5;" width="4" x="216.8683" y="332.8869"/><text fill="#000000" font-family="sans-serif" font-size="14" lengthAdjust="spacing" textLength="35.7383" x="178.13" y="354.882">Stats</text></g><!--entity CRUD--><g class="entity" data-qualified-name="DB Operations.CRUD" data-source-line="27" id="ent0015"><rect fill="#F1F1F1" height="62.5938" rx="2.5" ry="2.5" style="stroke:#181818;stroke-width:0.5;" width="261.792" x="23.1" y="655.7869"/><rect fill="#F1F1F1" height="10" style="stroke:#181818;stroke-width:0.5;" width="15" x="264.892" y="660.7869"/><rect fill="#F1F1F1" height="2" style="stroke:#181818;stroke-width:0.5;" width="4" x="262.892" y="662.7869"/><rect fill="#F1F1F1" height="2" style="stroke:#181818;stroke-width:0.5;" width="4" x="262.892" y="666.7869"/><text fill="#000000" font-family="sans-serif" font-size="14" lengthAdjust="spacing" textLength="119.4922" x="38.1" y="688.782">CRUD operations</text><text fill="#000000" font-family="sans-serif" font-size="14" lengthAdjust="spacing" textLength="221.792" x="38.1" y="705.0789">(create / read / update / delete)</text></g><!--entity DatabaseInterface--><g class="entity" data-qualified-name="Database Access.DatabaseInterface" data-source-line="31" id="ent0017"><rect fill="#F1F1F1" height="46.2969" rx="2.5" ry="2.5" style="stroke:#181818;stroke-width:0.5;" width="169.4795" x="69.26" y="793.3769"/><rect fill="#F1F1F1" height="10" style="stroke:#181818;stroke-width:0.5;" width="15" x="218.7395" y="798.3769"/><rect fill="#F1F1F1" height="2" style="stroke:#181818;stroke-width:0.5;" width="4" x="216.7395" y="800.3769"/><rect fill="#F1F1F1" height="2" style="stroke:#181818;stroke-width:0.5;" width="4" x="216.7395" y="804.3769"/><text fill="#000000" font-family="sans-serif" font-size="14" lengthAdjust="spacing" textLength="129.4795" x="84.26" y="826.372">DatabaseInterface</text></g><!--entity DB--><g class="entity" data-qualified-name="DB" data-source-line="34" id="ent0018"><path d="M84.33,909.6769 C84.33,899.6769 154.0009,899.6769 154.0009,899.6769 C154.0009,899.6769 223.6718,899.6769 223.6718,909.6769 L223.6718,951.2706 C223.6718,961.2706 154.0009,961.2706 154.0009,961.2706 C154.0009,961.2706 84.33,961.2706 84.33,951.2706 L84.33,909.6769" fill="#F1F1F1" style="stroke:#181818;stroke-width:0.5;"/><path d="M84.33,909.6769 C84.33,919.6769 154.0009,919.6769 154.0009,919.6769 C154.0009,919.6769 223.6718,919.6769 223.6718,909.6769" fill="none" style="stroke:#181818;stroke-width:0.5;"/><text fill="#000000" font-family="sans-serif" font-size="14" lengthAdjust="spacing" textLength="70.5332" x="94.33" y="936.672">SQLite DB</text><text fill="#000000" font-family="sans-serif" font-size="14" lengthAdjust="spacing" textLength="119.3418" x="94.33" y="952.9689">AutoMechApp.db</text></g><g class="entity" data-qualified-name="GMN29" data-source-line="53" id="ent0030"><path d="M394.51,324.9069 L394.51,341.2669 L360.05,345.2669 L394.51,349.2669 L394.51,365.1725 A0,0 0 0 0 394.51,365.1725 L591.4924,365.1725 A0,0 0 0 0 591.4924,365.1725 L591.4924,334.9069 L581.4924,324.9069 L394.51,324.9069 A0,0 0 0 0 394.51,324.9069" fill="#FEFFDD" style="stroke:#181818;stroke-width:0.5;"/><path d="M581.4924,324.9069 L581.4924,334.9069 L591.4924,334.9069 L581.4924,324.9069" fill="#FEFFDD" style="stroke:#181818;stroke-width:0.5;"/><text fill="#000000" font-family="sans-serif" font-size="13" lengthAdjust="spacing" textLength="130.8442" x="400.51" y="341.9738">&#1055;&#1086;&#1088;&#1103;&#1076;&#1086;&#1082; &#1089;&#1086;&#1079;&#1076;&#1072;&#1085;&#1080;&#1103;:</text><text fill="#000000" font-family="sans-serif" font-size="13" lengthAdjust="spacing" textLength="175.9824" x="400.51" y="357.1066">Owner &#8594; Car &#8594; Breakdown</text></g><!--link MainActivity to OwnersFragment--><g class="link" data-entity-1="ent0003" data-entity-2="ent0005" data-link-type="dependency" data-source-line="37" id="lnk19"><path d="M427.72,125.8369 C427.72,147.3169 427.72,172.9669 427.72,194.4269" fill="none" id="MainActivity-to-OwnersFragment" style="stroke:#181818;stroke-width:1;"/><polygon fill="#181818" points="427.72,200.4269,431.72,191.4269,427.72,195.4269,423.72,191.4269,427.72,200.4269" style="stroke:#181818;stroke-width:1;"/></g><!--link MainActivity to CarsFragment--><g class="link" data-entity-1="ent0003" data-entity-2="ent0006" data-link-type="dependency" data-source-line="38" id="lnk20"><path d="M508.18,125.8369 C508.18,147.3169 508.18,172.9669 508.18,194.4269" fill="none" id="MainActivity-to-CarsFragment" style="stroke:#181818;stroke-width:1;"/><polygon fill="#181818" points="508.18,200.4269,512.18,191.4269,508.18,195.4269,504.18,191.4269,508.18,200.4269" style="stroke:#181818;stroke-width:1;"/></g><!--link MainActivity to BreakdownsFragment--><g class="link" data-entity-1="ent0003" data-entity-2="ent0007" data-link-type="dependency" data-source-line="39" id="lnk21"><path d="M528.43,103.2669 C614.86,103.2669 759,103.2669 759,103.2669 C759,103.2669 759,159.1669 759,194.2269" fill="none" id="MainActivity-to-BreakdownsFragment" style="stroke:#181818;stroke-width:1;"/><polygon fill="#181818" points="759,200.2269,763,191.2269,759,195.2269,755,191.2269,759,200.2269" style="stroke:#181818;stroke-width:1;"/></g><!--link MainActivity to StatsFragment--><g class="link" data-entity-1="ent0003" data-entity-2="ent0008" data-link-type="dependency" data-source-line="40" id="lnk22"><path d="M401.69,103.2669 C319.37,103.2669 186,103.2669 186,103.2669 C186,103.2669 186,159.1669 186,194.2269" fill="none" id="MainActivity-to-StatsFragment" style="stroke:#181818;stroke-width:1;"/><polygon fill="#181818" points="186,200.2269,190,191.2269,186,195.2269,182,191.2269,186,200.2269" style="stroke:#181818;stroke-width:1;"/></g><!--link OwnersFragment to Owner--><g class="link" data-entity-1="ent0005" data-entity-2="ent0010" data-link-type="dependency" data-source-line="43" id="lnk23"><path d="M326.2,247.1269 C326.2,268.6069 326.2,294.2669 326.2,315.7269" fill="none" id="OwnersFragment-to-Owner" style="stroke:#181818;stroke-width:1;"/><polygon fill="#181818" points="326.2,321.7269,330.2,312.7269,326.2,316.7269,322.2,312.7269,326.2,321.7269" style="stroke:#181818;stroke-width:1;"/></g><!--link CarsFragment to Car--><g class="link" data-entity-1="ent0006" data-entity-2="ent0011" data-link-type="dependency" data-source-line="44" id="lnk24"><path d="M609.57,247.3369 C609.57,305.7269 609.57,452.2669 609.57,452.2669 C609.57,452.2669 425.17,452.2669 347.45,452.2669" fill="none" id="CarsFragment-to-Car" style="stroke:#181818;stroke-width:1;"/><polygon fill="#181818" points="341.45,452.2669,350.45,456.2669,346.45,452.2669,350.45,448.2669,341.45,452.2669" style="stroke:#181818;stroke-width:1;"/></g><!--link BreakdownsFragment to Breakdown--><g class="link" data-entity-1="ent0007" data-entity-2="ent0012" data-link-type="dependency" data-source-line="45" id="lnk25"><path d="M759,247.2669 C759,323.4069 759,558.2669 759,558.2669 C759,558.2669 490.33,558.2669 366.41,558.2669" fill="none" id="BreakdownsFragment-to-Breakdown" style="stroke:#181818;stroke-width:1;"/><polygon fill="#181818" points="360.41,558.2669,369.41,562.2669,365.41,558.2669,369.41,554.2669,360.41,558.2669" style="stroke:#181818;stroke-width:1;"/></g><!--link StatsFragment to Stats--><g class="link" data-entity-1="ent0008" data-entity-2="ent0013" data-link-type="dependency" data-source-line="46" id="lnk26"><path d="M201,247.1269 C201,268.6069 201,294.2669 201,315.7269" fill="none" id="StatsFragment-to-Stats" style="stroke:#181818;stroke-width:1;"/><polygon fill="#181818" points="201,321.7269,205,312.7269,201,316.7269,197,312.7269,201,321.7269" style="stroke:#181818;stroke-width:1;"/></g><!--link Owner to Car--><g class="link" data-entity-1="ent0010" data-entity-2="ent0011" data-link-type="dependency" data-source-line="49" id="lnk27"><path d="M319.69,368.6269 C319.69,386.2469 319.69,404.2169 319.69,421.8169" fill="none" id="Owner-to-Car" style="stroke:#181818;stroke-width:1;"/><polygon fill="#181818" points="319.69,427.8169,323.69,418.8169,319.69,422.8169,315.69,418.8169,319.69,427.8169" style="stroke:#181818;stroke-width:1;"/><text fill="#000000" font-family="sans-serif" font-size="13" lengthAdjust="spacing" textLength="24.7749" x="294.69" y="394.2838">1..n</text></g><!--link Car to Breakdown--><g class="link" data-entity-1="ent0011" data-entity-2="ent0012" data-link-type="dependency" data-source-line="50" id="lnk28"><path d="M309,474.9269 C309,492.5469 309,510.5069 309,528.1069" fill="none" id="Car-to-Breakdown" style="stroke:#181818;stroke-width:1;"/><polygon fill="#181818" points="309,534.1069,313,525.1069,309,529.1069,305,525.1069,309,534.1069" style="stroke:#181818;stroke-width:1;"/><text fill="#000000" font-family="sans-serif" font-size="13" lengthAdjust="spacing" textLength="29.1992" x="279" y="500.5838">1..m</text></g><!--link Owner to CRUD--><g class="link" data-entity-1="ent0010" data-entity-2="ent0015" data-link-type="dependency" data-source-line="58" id="lnk32"><path d="M298.31,368.5369 C298.31,382.7969 298.31,398.2669 298.31,398.2669 C298.31,398.2669 201,398.2669 201,398.2669 C201,398.2669 201,574.3169 201,649.3469" fill="none" id="Owner-to-CRUD" style="stroke:#181818;stroke-width:1;"/><polygon fill="#181818" points="201,655.3469,205,646.3469,201,650.3469,197,646.3469,201,655.3469" style="stroke:#181818;stroke-width:1;"/></g><!--link Car to CRUD--><g class="link" data-entity-1="ent0011" data-entity-2="ent0015" data-link-type="dependency" data-source-line="59" id="lnk33"><path d="M276.59,452.2669 C251.13,452.2669 219.93,452.2669 219.93,452.2669 C219.93,452.2669 219.93,585.3169 219.93,649.4069" fill="none" id="Car-to-CRUD" style="stroke:#181818;stroke-width:1;"/><polygon fill="#181818" points="219.93,655.4069,223.93,646.4069,219.93,650.4069,215.93,646.4069,219.93,655.4069" style="stroke:#181818;stroke-width:1;"/></g><!--link Breakdown to CRUD--><g class="link" data-entity-1="ent0012" data-entity-2="ent0015" data-link-type="dependency" data-source-line="60" id="lnk34"><path d="M263.34,581.0769 C263.34,601.9169 263.34,626.5469 263.34,649.5269" fill="none" id="Breakdown-to-CRUD" style="stroke:#181818;stroke-width:1;"/><polygon fill="#181818" points="263.34,655.5269,267.34,646.5269,263.34,650.5269,259.34,646.5269,263.34,655.5269" style="stroke:#181818;stroke-width:1;"/></g><!--link Stats to CRUD--><g class="link" data-entity-1="ent0013" data-entity-2="ent0015" data-link-type="dependency" data-source-line="61" id="lnk35"><path d="M182.07,368.5469 C182.07,428.5469 182.07,581.3769 182.07,649.4169" fill="none" id="Stats-to-CRUD" style="stroke:#181818;stroke-width:1;"/><polygon fill="#181818" points="182.07,655.4169,186.07,646.4169,182.07,650.4169,178.07,646.4169,182.07,655.4169" style="stroke:#181818;stroke-width:1;"/></g><!--link CRUD to DatabaseInterface--><g class="link" data-entity-1="ent0015" data-entity-2="ent0017" data-link-type="dependency" data-source-line="64" id="lnk36"><path d="M154,718.7469 C154,741.6469 154,766.0969 154,786.8969" fill="none" id="CRUD-to-DatabaseInterface" style="stroke:#181818;stroke-width:1;"/><polygon fill="#181818" points="154,792.8969,158,783.8969,154,787.8969,150,783.8969,154,792.8969" style="stroke:#181818;stroke-width:1;"/></g><!--link DatabaseInterface to DB--><g class="link" data-entity-1="ent0017" data-entity-2="ent0018" data-link-type="dependency" data-source-line="65" id="lnk37"><path d="M154,840.1369 C154,857.3469 154,874.8269 154,893.5269" fill="none" id="DatabaseInterface-to-DB" style="stroke:#181818;stroke-width:1;"/><polygon fill="#181818" points="154,899.5269,158,890.5269,154,894.5269,150,890.5269,154,899.5269" style="stroke:#181818;stroke-width:1;"/></g><!--SRC=[RPFFQjj04CRl-nI3BsqFSUarXu8LKmWqcCRarEGmbjRIrjAks1t7c598Bxq6IkzzXHuA3ONc6UHNo9DqjFfZIT5fsMy_pVVRdH4fIYNCjcGkP9ZCyXoUxdx0akmsfAt555BSI-k4S1kbSxIOWKimCZkbOrXZwcJd95LQqZwNO2mbfdEGOxZ1M2vfps5MXeGwJgKWamCPM1aYaq6aoXDbj12r7oPNvt1f34tWim3uU85ApzXogsX_8xxqVUyinfdKv6hpOgSPl55lIkaC1q9W9MxuChelBmcfetI3vYPZ25YiFZ5hBwf9w1S-rXlK2M2HIulbVUioeSboepaH9cUNLtCmxVcrVXboGPBmcbyF8rwsULJj8vbAagycW0xAp_efIBX2nmqEG-aQt4OzroJj6aFfqQB6Erb-UA-uzZourft1c4Oh7p8FX7W19oSdm8-kyLR57h9KHBz3BBrzteSnJxynOuwnJetv1gshITlPWATlty5KpQk81tWTPWxeSRMeV322C-1aKv-bmzTo1Ll7lunpa2ZkjGsJVGUg4mYdy6OwrQBQ38Agmqm8RRXhLiK9WLctboX-5e-7kyDzyRjuBFx2uIilVtZpg_XNF1pkJuNt-OVXwdvjQmkf8oZBDi3rt7iNZ_1nH9zn-rayybRR3lHHh9xaADHHN7wTcfqlxFy7V-sHsHtHl7SU_0S0]--></g></svg>